<mxfile host="app.diagrams.net" agent="Mozilla/5.0 (Windows NT 10.0; Win64; x64) AppleWebKit/537.36 (KHTML, like Gecko) Chrome/131.0.0.0 Safari/537.36" version="24.9.0">
  <diagram name="第 1 页" id="VAuUNWVpNAgKjm2nBHj0">
    <mxGraphModel dx="1050" dy="556" grid="1" gridSize="10" guides="1" tooltips="1" connect="1" arrows="1" fold="1" page="1" pageScale="1" pageWidth="827" pageHeight="1169" math="0" shadow="0">
      <root>
        <mxCell id="0" />
        <mxCell id="1" parent="0" />
        <mxCell id="5LDKgibT_1XKMJCGN_Hb-35" value="Actor" style="shape=umlActor;verticalLabelPosition=bottom;verticalAlign=top;html=1;outlineConnect=0;" vertex="1" parent="1">
          <mxGeometry x="105" y="330" width="30" height="60" as="geometry" />
        </mxCell>
        <mxCell id="5LDKgibT_1XKMJCGN_Hb-34" value="Actor" style="shape=umlActor;verticalLabelPosition=bottom;verticalAlign=top;html=1;outlineConnect=0;" vertex="1" parent="1">
          <mxGeometry x="125" y="90" width="30" height="60" as="geometry" />
        </mxCell>
        <mxCell id="5LDKgibT_1XKMJCGN_Hb-3" value="" style="rounded=1;whiteSpace=wrap;html=1;" vertex="1" parent="1">
          <mxGeometry x="190" y="70" width="460" height="540" as="geometry" />
        </mxCell>
        <mxCell id="5LDKgibT_1XKMJCGN_Hb-4" value="&lt;font size=&quot;3&quot;&gt;店&lt;/font&gt;" style="ellipse;whiteSpace=wrap;html=1;aspect=fixed;" vertex="1" parent="1">
          <mxGeometry x="120" y="150" width="40" height="40" as="geometry" />
        </mxCell>
        <mxCell id="5LDKgibT_1XKMJCGN_Hb-6" value="&lt;font face=&quot;Helvetica&quot; style=&quot;font-size: 16px;&quot;&gt;會員&lt;/font&gt;" style="ellipse;whiteSpace=wrap;html=1;aspect=fixed;" vertex="1" parent="1">
          <mxGeometry x="95" y="390" width="50" height="50" as="geometry" />
        </mxCell>
        <mxCell id="5LDKgibT_1XKMJCGN_Hb-8" value="" style="rounded=0;whiteSpace=wrap;html=1;fillColor=#b1ddf0;strokeColor=#10739e;" vertex="1" parent="1">
          <mxGeometry x="220" y="320" width="150" height="240" as="geometry" />
        </mxCell>
        <mxCell id="5LDKgibT_1XKMJCGN_Hb-9" value="" style="rounded=0;whiteSpace=wrap;html=1;fillColor=#fa6800;fontColor=#000000;strokeColor=#C73500;" vertex="1" parent="1">
          <mxGeometry x="450" y="205" width="180" height="270" as="geometry" />
        </mxCell>
        <mxCell id="5LDKgibT_1XKMJCGN_Hb-10" value="" style="rounded=0;whiteSpace=wrap;html=1;fillStyle=solid;fillColor=#fad9d5;strokeColor=#ae4132;" vertex="1" parent="1">
          <mxGeometry x="225" y="130" width="140" height="120" as="geometry" />
        </mxCell>
        <mxCell id="5LDKgibT_1XKMJCGN_Hb-11" value="點餐" style="ellipse;whiteSpace=wrap;html=1;" vertex="1" parent="1">
          <mxGeometry x="273.75" y="390" width="91.25" height="50" as="geometry" />
        </mxCell>
        <mxCell id="5LDKgibT_1XKMJCGN_Hb-12" value="查詢餐廳人數" style="ellipse;whiteSpace=wrap;html=1;" vertex="1" parent="1">
          <mxGeometry x="225" y="327.5" width="85" height="52.5" as="geometry" />
        </mxCell>
        <mxCell id="5LDKgibT_1XKMJCGN_Hb-13" value="進店取餐" style="ellipse;whiteSpace=wrap;html=1;" vertex="1" parent="1">
          <mxGeometry x="267.5" y="500" width="85" height="50" as="geometry" />
        </mxCell>
        <mxCell id="5LDKgibT_1XKMJCGN_Hb-15" value="上傳人流數據" style="ellipse;whiteSpace=wrap;html=1;" vertex="1" parent="1">
          <mxGeometry x="510" y="390" width="95" height="65" as="geometry" />
        </mxCell>
        <mxCell id="5LDKgibT_1XKMJCGN_Hb-16" value="接收訂單" style="ellipse;whiteSpace=wrap;html=1;" vertex="1" parent="1">
          <mxGeometry x="530" y="275" width="90" height="60" as="geometry" />
        </mxCell>
        <mxCell id="5LDKgibT_1XKMJCGN_Hb-17" value="取消訂單" style="ellipse;whiteSpace=wrap;html=1;" vertex="1" parent="1">
          <mxGeometry x="465" y="327.5" width="90" height="65" as="geometry" />
        </mxCell>
        <mxCell id="5LDKgibT_1XKMJCGN_Hb-18" value="偵測人朝數量" style="ellipse;whiteSpace=wrap;html=1;" vertex="1" parent="1">
          <mxGeometry x="460" y="220" width="100" height="60" as="geometry" />
        </mxCell>
        <mxCell id="5LDKgibT_1XKMJCGN_Hb-20" value="查詢訂單&amp;nbsp;" style="ellipse;whiteSpace=wrap;html=1;" vertex="1" parent="1">
          <mxGeometry x="240" y="190" width="90" height="50" as="geometry" />
        </mxCell>
        <mxCell id="5LDKgibT_1XKMJCGN_Hb-21" value="接單" style="ellipse;whiteSpace=wrap;html=1;" vertex="1" parent="1">
          <mxGeometry x="240" y="140" width="90" height="45" as="geometry" />
        </mxCell>
        <mxCell id="5LDKgibT_1XKMJCGN_Hb-23" value="取消訂單" style="ellipse;whiteSpace=wrap;html=1;" vertex="1" parent="1">
          <mxGeometry x="225" y="440" width="80" height="50" as="geometry" />
        </mxCell>
        <mxCell id="5LDKgibT_1XKMJCGN_Hb-33" value="Actor" style="shape=umlActor;verticalLabelPosition=bottom;verticalAlign=top;html=1;outlineConnect=0;" vertex="1" parent="1">
          <mxGeometry x="700" y="220" width="30" height="60" as="geometry" />
        </mxCell>
        <mxCell id="5LDKgibT_1XKMJCGN_Hb-5" value="&lt;font size=&quot;3&quot;&gt;系統&lt;/font&gt;" style="ellipse;whiteSpace=wrap;html=1;aspect=fixed;" vertex="1" parent="1">
          <mxGeometry x="680" y="280" width="70" height="70" as="geometry" />
        </mxCell>
        <mxCell id="5LDKgibT_1XKMJCGN_Hb-37" value="&lt;b&gt;&lt;i&gt;功能:&lt;/i&gt;&lt;/b&gt;" style="shape=callout;whiteSpace=wrap;html=1;perimeter=calloutPerimeter;base=40;" vertex="1" parent="1">
          <mxGeometry x="560" y="170" width="40" height="50" as="geometry" />
        </mxCell>
        <mxCell id="5LDKgibT_1XKMJCGN_Hb-39" value="&lt;b&gt;&lt;i&gt;下單:&lt;/i&gt;&lt;/b&gt;" style="shape=callout;whiteSpace=wrap;html=1;perimeter=calloutPerimeter;" vertex="1" parent="1">
          <mxGeometry x="275" y="280" width="45" height="50" as="geometry" />
        </mxCell>
        <mxCell id="5LDKgibT_1XKMJCGN_Hb-40" value="&lt;b&gt;&lt;i&gt;訂單管理:&lt;/i&gt;&lt;/b&gt;" style="shape=callout;whiteSpace=wrap;html=1;perimeter=calloutPerimeter;" vertex="1" parent="1">
          <mxGeometry x="315" y="95" width="55" height="50" as="geometry" />
        </mxCell>
        <mxCell id="5LDKgibT_1XKMJCGN_Hb-44" value="" style="endArrow=none;html=1;rounded=0;exitX=1;exitY=0.5;exitDx=0;exitDy=0;" edge="1" parent="1" source="5LDKgibT_1XKMJCGN_Hb-6" target="5LDKgibT_1XKMJCGN_Hb-11">
          <mxGeometry width="50" height="50" relative="1" as="geometry">
            <mxPoint x="145" y="410" as="sourcePoint" />
            <mxPoint x="195" y="360" as="targetPoint" />
          </mxGeometry>
        </mxCell>
        <mxCell id="5LDKgibT_1XKMJCGN_Hb-45" value="" style="endArrow=none;html=1;rounded=0;exitX=0.956;exitY=0.736;exitDx=0;exitDy=0;exitPerimeter=0;" edge="1" parent="1" source="5LDKgibT_1XKMJCGN_Hb-6">
          <mxGeometry width="50" height="50" relative="1" as="geometry">
            <mxPoint x="175" y="510" as="sourcePoint" />
            <mxPoint x="225" y="460" as="targetPoint" />
          </mxGeometry>
        </mxCell>
        <mxCell id="5LDKgibT_1XKMJCGN_Hb-50" value="" style="endArrow=none;html=1;rounded=0;entryX=0.009;entryY=0.416;entryDx=0;entryDy=0;entryPerimeter=0;exitX=0.908;exitY=0.32;exitDx=0;exitDy=0;exitPerimeter=0;" edge="1" parent="1" source="5LDKgibT_1XKMJCGN_Hb-6" target="5LDKgibT_1XKMJCGN_Hb-9">
          <mxGeometry width="50" height="50" relative="1" as="geometry">
            <mxPoint x="390" y="370" as="sourcePoint" />
            <mxPoint x="440" y="320" as="targetPoint" />
          </mxGeometry>
        </mxCell>
        <mxCell id="5LDKgibT_1XKMJCGN_Hb-51" value="" style="endArrow=none;html=1;rounded=0;entryX=0;entryY=0.5;entryDx=0;entryDy=0;" edge="1" parent="1" target="5LDKgibT_1XKMJCGN_Hb-21">
          <mxGeometry width="50" height="50" relative="1" as="geometry">
            <mxPoint x="160" y="170" as="sourcePoint" />
            <mxPoint x="210" y="120" as="targetPoint" />
          </mxGeometry>
        </mxCell>
        <mxCell id="5LDKgibT_1XKMJCGN_Hb-52" value="" style="endArrow=none;html=1;rounded=0;exitX=0.95;exitY=0.7;exitDx=0;exitDy=0;entryX=0;entryY=0.5;entryDx=0;entryDy=0;exitPerimeter=0;" edge="1" parent="1" source="5LDKgibT_1XKMJCGN_Hb-4" target="5LDKgibT_1XKMJCGN_Hb-20">
          <mxGeometry width="50" height="50" relative="1" as="geometry">
            <mxPoint x="140" y="230" as="sourcePoint" />
            <mxPoint x="190" y="180" as="targetPoint" />
          </mxGeometry>
        </mxCell>
        <mxCell id="5LDKgibT_1XKMJCGN_Hb-53" value="登入系統" style="ellipse;whiteSpace=wrap;html=1;" vertex="1" parent="1">
          <mxGeometry x="350" y="270" width="85" height="30" as="geometry" />
        </mxCell>
        <mxCell id="5LDKgibT_1XKMJCGN_Hb-55" value="&lt;span style=&quot;color: rgb(0, 0, 0); font-family: Helvetica; font-size: 11px; font-style: normal; font-variant-ligatures: normal; font-variant-caps: normal; font-weight: 400; letter-spacing: normal; orphans: 2; text-align: center; text-indent: 0px; text-transform: none; widows: 2; word-spacing: 0px; -webkit-text-stroke-width: 0px; white-space: nowrap; background-color: rgb(255, 255, 255); text-decoration-thickness: initial; text-decoration-style: initial; text-decoration-color: initial; display: inline !important; float: none;&quot;&gt;&amp;lt;&amp;lt;include&amp;gt;&amp;gt;&lt;/span&gt;" style="endArrow=none;dashed=1;html=1;rounded=0;exitX=1;exitY=0.5;exitDx=0;exitDy=0;" edge="1" parent="1" source="5LDKgibT_1XKMJCGN_Hb-21">
          <mxGeometry x="-0.1523" y="16" width="50" height="50" relative="1" as="geometry">
            <mxPoint x="390" y="370" as="sourcePoint" />
            <mxPoint x="370" y="270" as="targetPoint" />
            <Array as="points">
              <mxPoint x="400" y="270" />
            </Array>
            <mxPoint as="offset" />
          </mxGeometry>
        </mxCell>
        <mxCell id="5LDKgibT_1XKMJCGN_Hb-57" value="" style="endArrow=none;dashed=1;html=1;rounded=0;" edge="1" parent="1">
          <mxGeometry width="50" height="50" relative="1" as="geometry">
            <mxPoint x="330" y="220" as="sourcePoint" />
            <mxPoint x="390" y="270" as="targetPoint" />
          </mxGeometry>
        </mxCell>
        <mxCell id="5LDKgibT_1XKMJCGN_Hb-85" value="&amp;lt;&amp;lt;include&amp;gt;&amp;gt;" style="edgeLabel;html=1;align=center;verticalAlign=middle;resizable=0;points=[];" vertex="1" connectable="0" parent="5LDKgibT_1XKMJCGN_Hb-57">
          <mxGeometry x="-0.059" y="1" relative="1" as="geometry">
            <mxPoint x="-7" y="-3" as="offset" />
          </mxGeometry>
        </mxCell>
        <mxCell id="5LDKgibT_1XKMJCGN_Hb-59" value="" style="endArrow=none;dashed=1;html=1;rounded=0;entryX=0.273;entryY=0.933;entryDx=0;entryDy=0;entryPerimeter=0;" edge="1" parent="1" target="5LDKgibT_1XKMJCGN_Hb-53">
          <mxGeometry width="50" height="50" relative="1" as="geometry">
            <mxPoint x="305" y="340" as="sourcePoint" />
            <mxPoint x="355" y="290" as="targetPoint" />
          </mxGeometry>
        </mxCell>
        <mxCell id="5LDKgibT_1XKMJCGN_Hb-84" value="&amp;lt;&amp;lt;include&amp;gt;&amp;gt;" style="edgeLabel;html=1;align=center;verticalAlign=middle;resizable=0;points=[];" vertex="1" connectable="0" parent="5LDKgibT_1XKMJCGN_Hb-59">
          <mxGeometry x="-0.3143" y="-1" relative="1" as="geometry">
            <mxPoint as="offset" />
          </mxGeometry>
        </mxCell>
        <mxCell id="5LDKgibT_1XKMJCGN_Hb-60" value="" style="endArrow=none;dashed=1;html=1;rounded=0;entryX=0.5;entryY=1;entryDx=0;entryDy=0;" edge="1" parent="1" target="5LDKgibT_1XKMJCGN_Hb-53">
          <mxGeometry width="50" height="50" relative="1" as="geometry">
            <mxPoint x="305" y="465" as="sourcePoint" />
            <mxPoint x="355" y="415" as="targetPoint" />
          </mxGeometry>
        </mxCell>
        <mxCell id="5LDKgibT_1XKMJCGN_Hb-82" value="&amp;lt;&amp;lt;include&amp;gt;&amp;gt;" style="edgeLabel;html=1;align=center;verticalAlign=middle;resizable=0;points=[];" vertex="1" connectable="0" parent="5LDKgibT_1XKMJCGN_Hb-60">
          <mxGeometry x="0.0771" y="-1" relative="1" as="geometry">
            <mxPoint as="offset" />
          </mxGeometry>
        </mxCell>
        <mxCell id="5LDKgibT_1XKMJCGN_Hb-61" value="" style="endArrow=none;dashed=1;html=1;rounded=0;exitX=0.5;exitY=0;exitDx=0;exitDy=0;" edge="1" parent="1" source="5LDKgibT_1XKMJCGN_Hb-11">
          <mxGeometry width="50" height="50" relative="1" as="geometry">
            <mxPoint x="320" y="385" as="sourcePoint" />
            <mxPoint x="380" y="300" as="targetPoint" />
          </mxGeometry>
        </mxCell>
        <mxCell id="5LDKgibT_1XKMJCGN_Hb-83" value="&amp;lt;&amp;lt;include&amp;gt;&amp;gt;" style="edgeLabel;html=1;align=center;verticalAlign=middle;resizable=0;points=[];" vertex="1" connectable="0" parent="5LDKgibT_1XKMJCGN_Hb-61">
          <mxGeometry x="-0.3332" y="1" relative="1" as="geometry">
            <mxPoint as="offset" />
          </mxGeometry>
        </mxCell>
        <mxCell id="5LDKgibT_1XKMJCGN_Hb-68" value="" style="endArrow=classic;html=1;rounded=0;entryX=0.5;entryY=1;entryDx=0;entryDy=0;" edge="1" parent="1" target="5LDKgibT_1XKMJCGN_Hb-53">
          <mxGeometry width="50" height="50" relative="1" as="geometry">
            <mxPoint x="380" y="320" as="sourcePoint" />
            <mxPoint x="428" y="331" as="targetPoint" />
          </mxGeometry>
        </mxCell>
        <mxCell id="5LDKgibT_1XKMJCGN_Hb-69" value="" style="endArrow=classic;html=1;rounded=0;exitX=1;exitY=0;exitDx=0;exitDy=0;" edge="1" parent="1" source="5LDKgibT_1XKMJCGN_Hb-8">
          <mxGeometry width="50" height="50" relative="1" as="geometry">
            <mxPoint x="360" y="340" as="sourcePoint" />
            <mxPoint x="380" y="300" as="targetPoint" />
          </mxGeometry>
        </mxCell>
        <mxCell id="5LDKgibT_1XKMJCGN_Hb-70" value="" style="endArrow=classic;html=1;rounded=0;" edge="1" parent="1">
          <mxGeometry width="50" height="50" relative="1" as="geometry">
            <mxPoint x="360" y="310" as="sourcePoint" />
            <mxPoint x="370" y="300" as="targetPoint" />
          </mxGeometry>
        </mxCell>
        <mxCell id="5LDKgibT_1XKMJCGN_Hb-71" value="" style="endArrow=classic;html=1;rounded=0;" edge="1" parent="1">
          <mxGeometry width="50" height="50" relative="1" as="geometry">
            <mxPoint x="380" y="260" as="sourcePoint" />
            <mxPoint x="390" y="270" as="targetPoint" />
          </mxGeometry>
        </mxCell>
        <mxCell id="5LDKgibT_1XKMJCGN_Hb-72" value="" style="endArrow=classic;html=1;rounded=0;" edge="1" parent="1">
          <mxGeometry width="50" height="50" relative="1" as="geometry">
            <mxPoint x="380" y="240" as="sourcePoint" />
            <mxPoint x="400" y="270" as="targetPoint" />
          </mxGeometry>
        </mxCell>
        <mxCell id="5LDKgibT_1XKMJCGN_Hb-74" value="" style="endArrow=none;dashed=1;html=1;dashPattern=1 3;strokeWidth=2;rounded=0;entryX=0;entryY=1;entryDx=0;entryDy=0;exitX=1;exitY=0.5;exitDx=0;exitDy=0;" edge="1" parent="1" source="5LDKgibT_1XKMJCGN_Hb-13" target="5LDKgibT_1XKMJCGN_Hb-18">
          <mxGeometry width="50" height="50" relative="1" as="geometry">
            <mxPoint x="390" y="370" as="sourcePoint" />
            <mxPoint x="440" y="320" as="targetPoint" />
          </mxGeometry>
        </mxCell>
        <mxCell id="5LDKgibT_1XKMJCGN_Hb-81" value="&amp;lt;&amp;lt;include&amp;gt;&amp;gt;" style="edgeLabel;html=1;align=center;verticalAlign=middle;resizable=0;points=[];" vertex="1" connectable="0" parent="5LDKgibT_1XKMJCGN_Hb-74">
          <mxGeometry x="0.1093" y="-1" relative="1" as="geometry">
            <mxPoint as="offset" />
          </mxGeometry>
        </mxCell>
        <mxCell id="5LDKgibT_1XKMJCGN_Hb-75" value="" style="endArrow=classic;html=1;rounded=0;" edge="1" parent="1">
          <mxGeometry width="50" height="50" relative="1" as="geometry">
            <mxPoint x="372" y="481" as="sourcePoint" />
            <mxPoint x="354.4971428571429" y="521" as="targetPoint" />
          </mxGeometry>
        </mxCell>
        <mxCell id="5LDKgibT_1XKMJCGN_Hb-77" value="" style="endArrow=none;dashed=1;html=1;rounded=0;exitX=0;exitY=0;exitDx=0;exitDy=0;" edge="1" parent="1" source="5LDKgibT_1XKMJCGN_Hb-11" target="5LDKgibT_1XKMJCGN_Hb-21">
          <mxGeometry width="50" height="50" relative="1" as="geometry">
            <mxPoint x="390" y="370" as="sourcePoint" />
            <mxPoint x="440" y="320" as="targetPoint" />
          </mxGeometry>
        </mxCell>
        <mxCell id="5LDKgibT_1XKMJCGN_Hb-86" value="&amp;lt;&amp;lt;include&amp;gt;&amp;gt;" style="edgeLabel;html=1;align=center;verticalAlign=middle;resizable=0;points=[];" vertex="1" connectable="0" parent="5LDKgibT_1XKMJCGN_Hb-77">
          <mxGeometry x="0.2592" relative="1" as="geometry">
            <mxPoint as="offset" />
          </mxGeometry>
        </mxCell>
        <mxCell id="5LDKgibT_1XKMJCGN_Hb-80" value="" style="endArrow=classic;html=1;rounded=0;" edge="1" parent="1">
          <mxGeometry width="50" height="50" relative="1" as="geometry">
            <mxPoint x="287" y="369" as="sourcePoint" />
            <mxPoint x="287" y="396" as="targetPoint" />
          </mxGeometry>
        </mxCell>
        <mxCell id="5LDKgibT_1XKMJCGN_Hb-88" value="" style="endArrow=none;html=1;rounded=0;exitX=1;exitY=0.5;exitDx=0;exitDy=0;entryX=0.063;entryY=0.406;entryDx=0;entryDy=0;entryPerimeter=0;" edge="1" parent="1" source="5LDKgibT_1XKMJCGN_Hb-16" target="5LDKgibT_1XKMJCGN_Hb-5">
          <mxGeometry width="50" height="50" relative="1" as="geometry">
            <mxPoint x="590" y="365" as="sourcePoint" />
            <mxPoint x="640" y="315" as="targetPoint" />
          </mxGeometry>
        </mxCell>
        <mxCell id="5LDKgibT_1XKMJCGN_Hb-89" value="" style="endArrow=none;html=1;rounded=0;entryX=-0.017;entryY=0.349;entryDx=0;entryDy=0;exitX=1;exitY=0.5;exitDx=0;exitDy=0;entryPerimeter=0;" edge="1" parent="1" source="5LDKgibT_1XKMJCGN_Hb-18" target="5LDKgibT_1XKMJCGN_Hb-5">
          <mxGeometry width="50" height="50" relative="1" as="geometry">
            <mxPoint x="590" y="350" as="sourcePoint" />
            <mxPoint x="640" y="300" as="targetPoint" />
          </mxGeometry>
        </mxCell>
        <mxCell id="5LDKgibT_1XKMJCGN_Hb-90" value="" style="endArrow=none;html=1;rounded=0;entryX=0;entryY=0.714;entryDx=0;entryDy=0;entryPerimeter=0;" edge="1" parent="1" target="5LDKgibT_1XKMJCGN_Hb-5">
          <mxGeometry width="50" height="50" relative="1" as="geometry">
            <mxPoint x="555" y="365" as="sourcePoint" />
            <mxPoint x="605" y="315" as="targetPoint" />
          </mxGeometry>
        </mxCell>
        <mxCell id="5LDKgibT_1XKMJCGN_Hb-91" value="" style="endArrow=none;html=1;rounded=0;exitX=1;exitY=0;exitDx=0;exitDy=0;" edge="1" parent="1" source="5LDKgibT_1XKMJCGN_Hb-15" target="5LDKgibT_1XKMJCGN_Hb-5">
          <mxGeometry width="50" height="50" relative="1" as="geometry">
            <mxPoint x="630" y="365" as="sourcePoint" />
            <mxPoint x="680" y="315" as="targetPoint" />
          </mxGeometry>
        </mxCell>
        <mxCell id="5LDKgibT_1XKMJCGN_Hb-93" value="" style="shape=flexArrow;endArrow=classic;html=1;rounded=0;fontSize=28;" edge="1" parent="1">
          <mxGeometry width="50" height="50" relative="1" as="geometry">
            <mxPoint x="810" y="120" as="sourcePoint" />
            <mxPoint x="680" y="95" as="targetPoint" />
          </mxGeometry>
        </mxCell>
        <mxCell id="5LDKgibT_1XKMJCGN_Hb-94" value="&lt;b&gt;&lt;i&gt;&lt;u&gt;Use Case&lt;/u&gt;&lt;/i&gt;&lt;/b&gt;" style="edgeLabel;html=1;align=center;verticalAlign=middle;resizable=0;points=[];" vertex="1" connectable="0" parent="5LDKgibT_1XKMJCGN_Hb-93">
          <mxGeometry x="0.0294" relative="1" as="geometry">
            <mxPoint as="offset" />
          </mxGeometry>
        </mxCell>
      </root>
    </mxGraphModel>
  </diagram>
</mxfile>
